<svg width="69" height="77" viewBox="0 0 69 77" fill="none" xmlns="http://www.w3.org/2000/svg">
<path d="M34.0176 38.5029C39.1704 38.5029 44.1121 36.4918 47.7557 32.912C51.3992 29.3321 53.4462 24.4768 53.4462 19.4141C53.4462 14.3515 51.3992 9.49615 47.7557 5.91631C44.1121 2.33646 39.1704 0.325325 34.0176 0.325325C28.8648 0.325325 23.9231 2.33646 20.2795 5.91631C16.6359 9.49615 14.589 14.3515 14.589 19.4141C14.589 24.4768 16.6359 29.3321 20.2795 32.912C23.9231 36.4918 28.8648 38.5029 34.0176 38.5029ZM27.081 45.6613C12.1301 45.6613 0.0175781 57.5619 0.0175781 72.2514C0.0175781 74.6971 2.03633 76.6806 4.52561 76.6806H63.5095C65.9988 76.6806 68.0176 74.6971 68.0176 72.2514C68.0176 57.5619 55.9051 45.6613 40.9542 45.6613H27.081Z" fill="white"/>
</svg>
