<svg width="26" height="26" viewBox="0 0 26 26" fill="none" xmlns="http://www.w3.org/2000/svg">
<path d="M6.60352 10.4825C7.01773 10.4825 7.35352 10.1406 7.35352 9.71893C7.35352 9.29723 7.01773 8.95538 6.60352 8.95538V10.4825ZM5.43685 8.95538C5.02264 8.95538 4.68685 9.29723 4.68685 9.71893C4.68685 10.1406 5.02264 10.4825 5.43685 10.4825V8.95538ZM11.2702 10.4825C11.6844 10.4825 12.0202 10.1406 12.0202 9.71893C12.0202 9.29723 11.6844 8.95538 11.2702 8.95538V10.4825ZM10.1035 8.95538C9.6893 8.95538 9.35352 9.29723 9.35352 9.71893C9.35352 10.1406 9.6893 10.4825 10.1035 10.4825V8.95538ZM6.60352 6.91924C7.01773 6.91924 7.35352 6.57739 7.35352 6.15569C7.35352 5.73399 7.01773 5.39214 6.60352 5.39214V6.91924ZM5.43685 5.39214C5.02264 5.39214 4.68685 5.73399 4.68685 6.15569C4.68685 6.57739 5.02264 6.91924 5.43685 6.91924V5.39214ZM11.2702 6.91924C11.6844 6.91924 12.0202 6.57739 12.0202 6.15569C12.0202 5.73399 11.6844 5.39214 11.2702 5.39214V6.91924ZM10.1035 5.39214C9.6893 5.39214 9.35352 5.73399 9.35352 6.15569C9.35352 6.57739 9.6893 6.91924 10.1035 6.91924V5.39214ZM20.6035 17.609C21.0177 17.609 21.3535 17.2671 21.3535 16.8454C21.3535 16.4237 21.0177 16.0819 20.6035 16.0819V17.609ZM19.4368 16.0819C19.0226 16.0819 18.6868 16.4237 18.6868 16.8454C18.6868 17.2671 19.0226 17.609 19.4368 17.609V16.0819ZM20.6035 12.858C21.0177 12.858 21.3535 12.5161 21.3535 12.0944C21.3535 11.6727 21.0177 11.3309 20.6035 11.3309V12.858ZM19.4368 11.3309C19.0226 11.3309 18.6868 11.6727 18.6868 12.0944C18.6868 12.5161 19.0226 12.858 19.4368 12.858V11.3309ZM15.3535 25.1597H14.6035C14.6035 25.5814 14.9393 25.9232 15.3535 25.9232V25.1597ZM0.603516 10.9067C0.603516 11.3284 0.939302 11.6702 1.35352 11.6702C1.76773 11.6702 2.10352 11.3284 2.10352 10.9067H0.603516ZM1.43518 23.0336L2.04321 23.4806C2.0504 23.4705 2.05735 23.4602 2.06405 23.4497L1.43518 23.0336ZM10.6063 23.0336L11.2359 22.6185L11.235 22.6172L10.6063 23.0336ZM10.6355 23.4422L9.98359 23.0647L9.98188 23.0678L10.6355 23.4422ZM8.80385 25.067L8.72576 24.3076L8.72449 24.3078L8.80385 25.067ZM1.40485 23.4422L0.737734 23.7911C0.742264 23.8001 0.746968 23.809 0.751844 23.8177L1.40485 23.4422ZM6.60352 8.95538H5.43685V10.4825H6.60352V8.95538ZM11.2702 8.95538H10.1035V10.4825H11.2702V8.95538ZM6.60352 5.39214H5.43685V6.91924H6.60352V5.39214ZM11.2702 5.39214H10.1035V6.91924H11.2702V5.39214ZM20.6035 16.0819H19.4368V17.609H20.6035V16.0819ZM20.6035 11.3309H19.4368V12.858H20.6035V11.3309ZM14.6035 8.53119V25.1597H16.1035V8.53119H14.6035ZM15.3535 25.9232H20.0202V24.3961H15.3535V25.9232ZM20.0202 25.9232C21.0991 25.9232 21.9835 25.9248 22.6804 25.8294C23.399 25.731 24.0292 25.517 24.5335 25.0036L23.4729 23.9237C23.2935 24.1063 23.0323 24.2403 22.4804 24.3159C21.9068 24.3945 21.1416 24.3961 20.0202 24.3961V25.9232ZM24.5335 25.0036C25.0378 24.4901 25.248 23.8486 25.3447 23.117C25.4384 22.4075 25.4369 21.5071 25.4369 20.4087H23.9369C23.9369 21.5503 23.9353 22.3294 23.8581 22.9134C23.7838 23.4753 23.6522 23.7411 23.4729 23.9237L24.5335 25.0036ZM25.4369 20.4087V13.2822H23.9369V20.4087H25.4369ZM25.4369 13.2822C25.4369 12.1837 25.4384 11.2833 25.3447 10.5739C25.248 9.84228 25.0378 9.20071 24.5335 8.68729L23.4729 9.76712C23.6522 9.94973 23.7838 10.2156 23.8581 10.7775C23.9353 11.3615 23.9369 12.1405 23.9369 13.2822H25.4369ZM24.5335 8.68729C24.0292 8.17388 23.399 7.95987 22.6804 7.86145C21.9835 7.76601 21.0991 7.76763 20.0202 7.76763V9.29474C21.1416 9.29474 21.9068 9.29636 22.4804 9.37492C23.0323 9.45051 23.2935 9.58451 23.4729 9.76712L24.5335 8.68729ZM20.0202 7.76763H15.3535V9.29474H20.0202V7.76763ZM16.1035 8.53119C16.1035 6.8733 16.1051 5.55276 15.9686 4.51964C15.8293 3.46463 15.5337 2.59554 14.858 1.9085L13.7974 2.98833C14.1473 3.34414 14.365 3.83742 14.482 4.72318C14.6019 5.63085 14.6035 6.83012 14.6035 8.53119H16.1035ZM14.858 1.9085C14.1832 1.22069 13.3301 0.920343 12.2939 0.77846C11.2791 0.639519 9.98198 0.641142 8.35352 0.641142V2.16825C10.0244 2.16825 11.2024 2.16987 12.0939 2.29194C12.964 2.41106 13.4479 2.63212 13.7974 2.98833L14.858 1.9085ZM8.35352 0.641142C6.72506 0.641142 5.42795 0.639519 4.41318 0.77846C3.37689 0.920343 2.52322 1.2213 1.84838 1.90912L2.90905 2.98895C3.25854 2.63273 3.74306 2.41106 4.61311 2.29194C5.50466 2.16987 6.68264 2.16825 8.35352 2.16825V0.641142ZM1.84838 1.90912C1.17278 2.59616 0.877761 3.46463 0.738395 4.51964C0.601922 5.55276 0.603516 6.8733 0.603516 8.53119H2.10352C2.10352 6.83012 2.10511 5.63085 2.22501 4.72318C2.34202 3.83742 2.55915 3.34475 2.90905 2.98895L1.84838 1.90912ZM0.603516 8.53119V10.9067H2.10352V8.53119H0.603516ZM7.63286 15.6209C7.63747 15.8356 7.59991 16.049 7.52238 16.2487L8.91735 16.8101C9.06833 16.4212 9.14148 16.0056 9.1325 15.5875L7.63286 15.6209ZM7.52238 16.2487C7.44485 16.4484 7.32892 16.6303 7.18138 16.7837L8.25331 17.852C8.54061 17.5532 8.76637 17.1989 8.91735 16.8101L7.52238 16.2487ZM7.18138 16.7837C7.03385 16.9372 6.8577 17.059 6.66326 17.1422L7.24433 18.5501C7.62297 18.3881 7.96601 18.1508 8.25331 17.852L7.18138 16.7837ZM6.66326 17.1422C6.46882 17.2254 6.26002 17.2682 6.04912 17.2681L6.04837 18.7952C6.45908 18.7954 6.86569 18.7121 7.24433 18.5501L6.66326 17.1422ZM6.04912 17.2681C5.83821 17.268 5.62945 17.225 5.4351 17.1416L4.85264 18.5489C5.23113 18.7112 5.63766 18.795 6.04837 18.7952L6.04912 17.2681ZM5.4351 17.1416C5.24074 17.0582 5.0647 16.9362 4.91732 16.7826L3.84435 17.8497C4.13135 18.1488 4.47416 18.3865 4.85264 18.5489L5.4351 17.1416ZM4.91732 16.7826C4.76994 16.629 4.65419 16.447 4.57685 16.2472L3.18133 16.8071C3.33193 17.1962 3.55735 17.5506 3.84435 17.8497L4.91732 16.7826ZM4.57685 16.2472C4.49952 16.0474 4.46217 15.834 4.46699 15.6193L2.96738 15.5844C2.95799 16.0024 3.03073 16.4181 3.18133 16.8071L4.57685 16.2472ZM4.46699 15.6193C4.47644 15.1981 4.64748 14.7975 4.94347 14.5031L3.89527 13.4107C3.31886 13.984 2.9858 14.7642 2.96738 15.5844L4.46699 15.6193ZM4.94347 14.5031C5.23947 14.2087 5.6369 14.044 6.0507 14.0442L6.05145 12.5171C5.24564 12.5167 4.47168 12.8374 3.89527 13.4107L4.94347 14.5031ZM6.0507 14.0442C6.4645 14.0444 6.86177 14.2095 7.15748 14.5042L8.20675 13.4129C7.6309 12.8391 6.85726 12.5175 6.05145 12.5171L6.0507 14.0442ZM7.15748 14.5042C7.45318 14.7989 7.62382 15.1997 7.63286 15.6209L9.1325 15.5875C9.11489 14.7674 8.7826 13.9868 8.20675 13.4129L7.15748 14.5042ZM2.06405 23.4497C3.14237 21.7604 4.85018 21.1391 6.04873 21.1402L6.04997 19.613C4.41119 19.6117 2.19666 20.4395 0.806315 22.6175L2.06405 23.4497ZM6.04873 21.1402C7.24034 21.1411 8.89426 21.7543 9.97766 23.4499L11.235 22.6172C9.84744 20.4455 7.69569 19.6144 6.04997 19.613L6.04873 21.1402ZM9.97683 23.4486C9.94667 23.4012 9.88257 23.2455 9.98359 23.0647L11.2874 23.8197C11.5331 23.3799 11.4247 22.9154 11.2359 22.6185L9.97683 23.4486ZM9.98188 23.0678C9.88108 23.2501 9.63472 23.581 9.33537 23.8727C9.18904 24.0153 9.04734 24.1315 8.92319 24.2109C8.78987 24.2962 8.72567 24.3076 8.72576 24.3076L8.88194 25.8264C9.2052 25.792 9.49552 25.6483 9.72121 25.5039C9.95606 25.3537 10.1778 25.1657 10.3726 24.9759C10.7555 24.6028 11.1018 24.1556 11.2892 23.8166L9.98188 23.0678ZM8.72449 24.3078C8.38858 24.3441 7.74774 24.3671 7.15443 24.3803C6.86396 24.3867 6.5943 24.3907 6.39335 24.393C6.29293 24.3942 6.20985 24.395 6.15013 24.3955C6.12027 24.3957 6.09632 24.3959 6.07903 24.396C6.07037 24.396 6.06348 24.3961 6.05841 24.3961C6.05587 24.3961 6.05388 24.3961 6.05242 24.3961C6.0508 24.3961 6.0503 24.3961 6.05052 24.3961V25.9232C6.09849 25.9232 8.08944 25.9123 8.88321 25.8263L8.72449 24.3078ZM6.05052 24.3961C6.05072 24.3961 6.0502 24.3961 6.04853 24.3961C6.04703 24.3961 6.04499 24.3961 6.04238 24.3961C6.03718 24.3961 6.0301 24.396 6.02122 24.396C6.00346 24.3959 5.97885 24.3957 5.94814 24.3955C5.88674 24.395 5.80128 24.3942 5.69801 24.393C5.49135 24.3907 5.21413 24.3867 4.91616 24.3802C4.30723 24.367 3.65261 24.3441 3.31846 24.3078L3.15924 25.8263C3.95108 25.9123 6.00355 25.9232 6.05052 25.9232V24.3961ZM3.31846 24.3078C3.32271 24.3082 3.3063 24.3069 3.26754 24.2909C3.22952 24.2752 3.17947 24.2494 3.11809 24.2102C2.99368 24.1307 2.85186 24.0146 2.70549 23.872C2.40617 23.5806 2.15948 23.2498 2.05785 23.0666L0.751844 23.8177C0.939552 24.156 1.28553 24.6026 1.66871 24.9757C1.86359 25.1654 2.08548 25.3533 2.32055 25.5036C2.54662 25.6481 2.83631 25.7914 3.15924 25.8263L3.31846 24.3078ZM2.07196 23.0933C2.10274 23.1543 2.11634 23.2227 2.11126 23.2911L0.61553 23.176C0.599747 23.3886 0.642041 23.6015 0.737734 23.7911L2.07196 23.0933ZM2.11126 23.2911C2.10619 23.3594 2.08264 23.425 2.04321 23.4806L0.827158 22.5866C0.704555 22.7594 0.631312 22.9634 0.61553 23.176L2.11126 23.2911Z" fill="#727272"/>
</svg>
