<svg width="16" height="22" viewBox="0 0 16 22" fill="none" xmlns="http://www.w3.org/2000/svg">
<path d="M12.3483 0.931917H3.68165C2.8197 0.931917 1.99305 1.2537 1.38355 1.82647C0.774058 2.39925 0.431649 3.1761 0.431649 3.98613V20.2752C0.430891 20.4546 0.480588 20.631 0.575708 20.7866C0.670828 20.9421 0.807994 21.0713 0.973315 21.161C1.138 21.2503 1.32482 21.2974 1.51498 21.2974C1.70515 21.2974 1.89196 21.2503 2.05665 21.161L8.01498 17.9235L13.9733 21.161C14.1384 21.2489 14.3252 21.2945 14.515 21.2933C14.7048 21.2945 14.8915 21.2489 15.0566 21.161C15.222 21.0713 15.3591 20.9421 15.4543 20.7866C15.5494 20.631 15.5991 20.4546 15.5983 20.2752V3.98613C15.5983 3.1761 15.2559 2.39925 14.6464 1.82647C14.0369 1.2537 13.2103 0.931917 12.3483 0.931917ZM13.4316 18.514L8.55665 15.867C8.39196 15.7776 8.20515 15.7306 8.01498 15.7306C7.82482 15.7306 7.638 15.7776 7.47332 15.867L2.59832 18.514V3.98613C2.59832 3.71612 2.71245 3.45717 2.91562 3.26624C3.11878 3.07532 3.39433 2.96806 3.68165 2.96806H12.3483C12.6356 2.96806 12.9112 3.07532 13.1143 3.26624C13.3175 3.45717 13.4316 3.71612 13.4316 3.98613V18.514Z" fill="#727272"/>
</svg>
