<svg width="25" height="26" viewBox="0 0 25 26" fill="none" xmlns="http://www.w3.org/2000/svg">
<path d="M11.7676 11.4194C11.7676 11.8411 12.1034 12.1829 12.5176 12.1829C12.9318 12.1829 13.2676 11.8411 13.2676 11.4194H11.7676ZM13.2676 10.7693C13.2676 10.3477 12.9318 10.0058 12.5176 10.0058C12.1034 10.0058 11.7676 10.3477 11.7676 10.7693H13.2676ZM16.2676 11.4194C16.2676 11.8411 16.6034 12.1829 17.0176 12.1829C17.4318 12.1829 17.7676 11.8411 17.7676 11.4194H16.2676ZM17.7676 10.7693C17.7676 10.3477 17.4318 10.0058 17.0176 10.0058C16.6034 10.0058 16.2676 10.3477 16.2676 10.7693H17.7676ZM7.26758 11.4194C7.26758 11.8411 7.60337 12.1829 8.01758 12.1829C8.4318 12.1829 8.76758 11.8411 8.76758 11.4194H7.26758ZM8.76758 10.7693C8.76758 10.3477 8.4318 10.0058 8.01758 10.0058C7.60337 10.0058 7.26758 10.3477 7.26758 10.7693H8.76758ZM5.76758 24.4203H5.01758C5.01758 24.7004 5.16824 24.958 5.41012 25.0915C5.65199 25.225 5.94626 25.213 6.17683 25.0601L5.76758 24.4203ZM5.76758 20.2444H6.51758C6.51758 19.8718 6.25348 19.5537 5.89265 19.4915L5.76758 20.2444ZM13.2676 11.4194V10.7693H11.7676V11.4194H13.2676ZM17.7676 11.4194V10.7693H16.2676V11.4194H17.7676ZM8.76758 11.4194V10.7693H7.26758V11.4194H8.76758ZM3.419 18.4313C2.69764 17.7645 2.38093 17.2374 2.20999 16.3314C2.02105 15.3301 2.01758 13.9081 2.01758 11.4194H0.517581C0.517581 13.8334 0.514109 15.4386 0.736922 16.6195C0.977731 17.8957 1.48479 18.706 2.41043 19.5616L3.419 18.4313ZM2.01758 11.4194C2.01758 8.94438 2.0195 7.1724 2.21537 5.82509C2.40688 4.50784 2.77 3.70735 3.41874 3.10769L2.41057 1.97695C1.41231 2.89969 0.951786 4.08652 0.731538 5.60151C0.515658 7.08645 0.517581 8.99177 0.517581 11.4194H2.01758ZM3.41874 3.10769C4.07917 2.49753 4.97603 2.1487 6.43676 1.96706C7.91235 1.78358 9.84665 1.78223 12.5176 1.78223V0.255127C9.88526 0.255127 7.84268 0.253786 6.2549 0.451223C4.65225 0.650511 3.39938 1.06341 2.41057 1.97695L3.41874 3.10769ZM12.5176 1.78223C15.1885 1.78223 17.1231 1.78358 18.5987 1.96706C20.0595 2.14872 20.9559 2.49767 21.6151 3.10747L22.6238 1.9773C21.636 1.06339 20.3831 0.650497 18.7805 0.451223C17.1928 0.253784 15.1499 0.255127 12.5176 0.255127V1.78223ZM21.6151 3.10747C22.2642 3.70797 22.6275 4.50878 22.8193 5.82574C23.0154 7.17282 23.0176 8.94447 23.0176 11.4194H24.5176C24.5176 8.99168 24.5192 7.08668 24.303 5.60184C24.0825 4.08688 23.6218 2.90051 22.6238 1.9773L21.6151 3.10747ZM23.0176 11.4194C23.0176 13.9081 23.0141 15.33 22.8251 16.3313C22.654 17.2371 22.3374 17.764 21.6155 18.4308L22.6234 19.5618C23.5496 18.7062 24.0571 17.8959 24.2981 16.6196C24.5211 15.4387 24.5176 13.8333 24.5176 11.4194H23.0176ZM21.6155 18.4308C20.957 19.0404 20.0602 19.39 18.5991 19.5716C17.1234 19.7551 15.1885 19.7565 12.5176 19.7565V21.2836C15.1499 21.2836 17.193 21.2849 18.781 21.0875C20.3836 20.8882 21.636 20.4759 22.6234 19.5618L21.6155 18.4308ZM12.5176 19.7565C10.8801 19.7565 9.65561 20.4225 8.56655 21.2404C8.03285 21.6413 7.5059 22.0992 6.99274 22.5291C6.46962 22.9674 5.94094 23.3942 5.35833 23.7804L6.17683 25.0601C6.83172 24.626 7.41257 24.1551 7.9459 23.7083C8.48919 23.2531 8.96559 22.8384 9.45706 22.4693C10.4183 21.7473 11.3313 21.2836 12.5176 21.2836V19.7565ZM6.51758 24.4203V20.2444H5.01758V24.4203H6.51758ZM5.89265 19.4915C4.74543 19.294 3.993 18.9623 3.419 18.4313L2.41043 19.5616C3.26968 20.3566 4.32823 20.771 5.64251 20.9973L5.89265 19.4915Z" fill="#727272"/>
</svg>
