<svg width="24" height="24" viewBox="0 0 24 24" fill="none" xmlns="http://www.w3.org/2000/svg">
<path d="M8.70312 6.5C8.71644 4.10747 8.82253 2.81177 9.66767 1.96655C10.6342 1 12.1897 1 15.3006 1H16.4005C19.5115 1 21.0671 1 22.0335 1.96655C22.9999 2.9331 22.9999 4.48873 22.9999 7.6V16.4C22.9999 19.5112 22.9999 21.0669 22.0335 22.0334C21.0671 23 19.5115 23 16.4005 23H15.3006C12.1897 23 10.6342 23 9.66767 22.0334C8.82253 21.1882 8.71644 19.8925 8.70312 17.5" stroke="#727272" stroke-width="2" stroke-linecap="round"/>
<path d="M15.2987 12H1M1 12L4.84966 8.70001M1 12L4.84966 15.3" stroke="#727272" stroke-width="2" stroke-linecap="round" stroke-linejoin="round"/>
</svg>
