<svg width="17" height="16" viewBox="0 0 17 16" fill="none" xmlns="http://www.w3.org/2000/svg">
<path d="M8.81731 4.23497V7.64326L11.6493 9.34231C12.0634 9.59098 12.0529 10.1946 11.6306 10.4289C11.4346 10.5376 11.1954 10.5334 11.0033 10.418L7.86704 8.53629C7.67823 8.42286 7.56276 8.2187 7.56283 7.99843V4.23497C7.56283 3.75212 8.08553 3.45034 8.50369 3.69176C8.69776 3.80381 8.81731 4.01088 8.81731 4.23497ZM15.9569 2.40107C15.7226 2.30384 15.4527 2.35738 15.2732 2.53671L14.3057 3.50659C14.0524 3.23138 13.7914 2.95775 13.5138 2.67627C9.41689 -1.42109 2.42079 0.453095 0.920826 6.04981C-0.579143 11.6465 4.542 16.7682 10.1389 15.2689C11.3439 14.9461 12.4497 14.3289 13.357 13.4727C13.7083 13.1407 13.5684 12.553 13.1053 12.4148C12.8904 12.3506 12.6576 12.406 12.4945 12.5601C8.98261 15.8738 3.2004 14.1432 2.08654 9.44489C0.972695 4.74659 5.36259 0.604377 9.98836 1.9889C10.9832 2.28666 11.8885 2.82674 12.6231 3.56069C12.9007 3.84138 13.1618 4.11736 13.4158 4.39414L12.137 5.67293C11.7954 6.01417 11.9513 6.59725 12.4176 6.72248C12.4708 6.73678 12.5257 6.74399 12.5808 6.74395H15.717C16.0634 6.74393 16.3442 6.46311 16.3442 6.1167V2.98048C16.3442 2.72679 16.1913 2.49811 15.9569 2.40107Z" fill="black"/>
</svg>
