<svg width="25" height="22" viewBox="0 0 25 22" fill="none" xmlns="http://www.w3.org/2000/svg">
<path d="M6.76318 21H18.2372C19.4512 21 20.4839 20.1384 20.6687 18.9711C20.9623 17.1159 21.0305 15.2354 20.8725 13.3679H23.0919C23.807 13.3679 24.2406 12.6002 23.8572 12.013L23.4733 11.4248C21.1636 7.88743 18.2249 4.77853 14.7942 2.24379L13.5972 1.35931C12.9487 0.88023 12.0516 0.88023 11.4031 1.35931L10.2059 2.24389C6.77537 4.77854 3.83645 7.8874 1.52688 11.4247L1.1428 12.013C0.759379 12.6002 1.19309 13.3679 1.90827 13.3679H4.12769C3.96986 15.2354 4.03792 17.1159 4.3316 18.9711C4.51639 20.1384 5.549 21 6.76318 21Z" stroke="black" stroke-width="2" stroke-linecap="round" stroke-linejoin="round"/>
<path d="M12.501 12.6951C14.1713 12.6951 15.5254 14.0122 15.5254 15.637V20.9998H9.47656V15.637C9.47656 14.0122 10.8306 12.6951 12.501 12.6951Z" stroke="black" stroke-width="2" stroke-linecap="round" stroke-linejoin="round"/>
</svg>
