<svg width="20" height="24" viewBox="0 0 20 24" fill="none" xmlns="http://www.w3.org/2000/svg">
<path d="M12.47 0.333313C12.9247 0.33344 13.3679 0.487646 13.7367 0.774089C14.1056 1.06053 14.3814 1.46469 14.5251 1.92931L15.1133 3.83331H18.6667C18.8089 3.83331 18.9498 3.86349 19.0812 3.92212C19.2127 3.98075 19.3321 4.06669 19.4327 4.17502C19.5333 4.28336 19.6131 4.41197 19.6675 4.55352C19.722 4.69506 19.75 4.84677 19.75 4.99998C19.75 5.15319 19.722 5.3049 19.6675 5.44644C19.6131 5.58799 19.5333 5.7166 19.4327 5.82494C19.3321 5.93327 19.2127 6.01921 19.0812 6.07784C18.9498 6.13647 18.8089 6.16665 18.6667 6.16665L18.6634 6.24948L17.7242 20.4163C17.6655 21.299 17.2986 22.1251 16.6972 22.7281C16.0958 23.3312 15.3046 23.6665 14.4828 23.6666H5.51717C4.69541 23.6665 3.9042 23.3312 3.3028 22.7281C2.70139 22.1251 2.33445 21.299 2.27583 20.4163L1.33658 6.24831C1.33462 6.22114 1.33354 6.1939 1.33333 6.16665C1.04602 6.16665 0.770465 6.04373 0.567301 5.82494C0.364137 5.60615 0.25 5.3094 0.25 4.99998C0.25 4.69056 0.364137 4.39381 0.567301 4.17502C0.770465 3.95623 1.04602 3.83331 1.33333 3.83331H4.88667L5.47492 1.92931C5.61867 1.4645 5.89464 1.06021 6.26369 0.773747C6.63274 0.487288 7.07616 0.333195 7.53108 0.333313H12.47ZM16.4967 6.16665H3.50325L4.43708 20.2495C4.45653 20.5437 4.57876 20.8191 4.77916 21.0202C4.97956 21.2213 5.24325 21.3332 5.51717 21.3333H14.4828C14.7567 21.3332 15.0204 21.2213 15.2208 21.0202C15.4212 20.8191 15.5435 20.5437 15.5629 20.2495L16.4967 6.16665ZM7.83333 9.66665C8.09868 9.66668 8.35478 9.7716 8.55307 9.96148C8.75136 10.1514 8.87804 10.413 8.90908 10.6968L8.91667 10.8333V16.6666C8.91636 16.964 8.81063 17.25 8.62108 17.4662C8.43153 17.6825 8.17247 17.8126 7.89682 17.83C7.62118 17.8474 7.34976 17.7509 7.13801 17.56C6.92627 17.3691 6.7902 17.0984 6.75758 16.8031L6.75 16.6666V10.8333C6.75 10.5239 6.86414 10.2271 7.0673 10.0084C7.27046 9.78956 7.54602 9.66665 7.83333 9.66665ZM12.1667 9.66665C12.454 9.66665 12.7295 9.78956 12.9327 10.0084C13.1359 10.2271 13.25 10.5239 13.25 10.8333V16.6666C13.25 16.9761 13.1359 17.2728 12.9327 17.4916C12.7295 17.7104 12.454 17.8333 12.1667 17.8333C11.8793 17.8333 11.6038 17.7104 11.4006 17.4916C11.1975 17.2728 11.0833 16.9761 11.0833 16.6666V10.8333C11.0833 10.5239 11.1975 10.2271 11.4006 10.0084C11.6038 9.78956 11.8793 9.66665 12.1667 9.66665ZM12.47 2.66665H7.53L7.16925 3.83331H12.8307L12.47 2.66665Z" fill="black"/>
</svg>
