<svg width="21" height="17" viewBox="0 0 21 17" fill="none" xmlns="http://www.w3.org/2000/svg">
<path d="M20.6744 1.27896C20.5736 1.20261 20.4585 1.15864 20.3398 1.15121C20.2212 1.14378 20.1029 1.17312 19.9962 1.23647C16.2392 3.46716 13.556 2.42192 10.7196 1.31932C7.74416 0.162553 4.65927 -1.03246 0.397316 1.49353C0.278235 1.56286 0.17774 1.67167 0.107436 1.80737C0.0371314 1.94308 -0.000114097 2.10016 2.62559e-07 2.26046V14.9998C-1.64671e-05 15.144 0.0301914 15.2858 0.0877809 15.4119C0.14537 15.538 0.228448 15.6443 0.329195 15.7207C0.429941 15.797 0.545044 15.8411 0.663671 15.8486C0.782298 15.8561 0.900548 15.8268 1.00729 15.7636C4.76429 13.5329 7.44748 14.5781 10.2882 15.6807C11.972 16.334 13.6873 17 15.6266 17C17.1222 17 18.7535 16.6049 20.607 15.5065C20.7248 15.4367 20.824 15.3283 20.8935 15.1934C20.9629 15.0586 20.9998 14.9028 21 14.7438V2.00446C21.001 1.85991 20.9717 1.71741 20.9147 1.59046C20.8578 1.46351 20.775 1.35629 20.6744 1.27896ZM19.6032 14.2031C16.0502 16.1332 13.4553 15.1262 10.7153 14.0629C9.03149 13.4097 7.31621 12.7436 5.37689 12.7436C4.01438 12.7517 2.66573 13.0762 1.40373 13.6996V2.80114C4.95682 0.871062 7.55162 1.87806 10.2917 2.94135C13.0318 4.00465 15.8524 5.103 19.6032 3.30676V14.2031ZM10.5017 5.103C9.94786 5.103 9.40642 5.30235 8.94588 5.67586C8.48535 6.04936 8.12641 6.58023 7.91445 7.20134C7.70249 7.82246 7.64703 8.50591 7.75508 9.16528C7.86314 9.82465 8.12986 10.4303 8.52151 10.9057C8.91316 11.3811 9.41216 11.7048 9.95539 11.836C10.4986 11.9671 11.0617 11.8998 11.5734 11.6425C12.0851 11.3853 12.5225 10.9496 12.8302 10.3906C13.138 9.83162 13.3022 9.17443 13.3022 8.50214C13.3022 7.60063 13.0072 6.73605 12.482 6.09858C11.9568 5.46112 11.2445 5.103 10.5017 5.103ZM10.5017 10.2017C10.2248 10.2017 9.95408 10.102 9.72381 9.91528C9.49354 9.72853 9.31407 9.4631 9.20809 9.15254C9.10211 8.84198 9.07438 8.50026 9.12841 8.17057C9.18244 7.84089 9.3158 7.53805 9.51162 7.30036C9.70745 7.06267 9.95695 6.9008 10.2286 6.83523C10.5002 6.76965 10.7817 6.8033 11.0376 6.93194C11.2934 7.06058 11.5121 7.27842 11.666 7.55791C11.8198 7.8374 11.902 8.166 11.902 8.50214C11.902 8.9529 11.7544 9.38519 11.4918 9.70392C11.2293 10.0227 10.8731 10.2017 10.5017 10.2017ZM4.20069 5.103V10.2017C4.20069 10.4271 4.12693 10.6432 3.99564 10.8026C3.86434 10.962 3.68626 11.0515 3.50058 11.0515C3.3149 11.0515 3.13682 10.962 3.00552 10.8026C2.87423 10.6432 2.80046 10.4271 2.80046 10.2017V5.103C2.80046 4.87762 2.87423 4.66147 3.00552 4.50211C3.13682 4.34274 3.3149 4.25321 3.50058 4.25321C3.68626 4.25321 3.86434 4.34274 3.99564 4.50211C4.12693 4.66147 4.20069 4.87762 4.20069 5.103ZM16.8028 11.9013V6.80257C16.8028 6.57719 16.8765 6.36104 17.0078 6.20168C17.1391 6.04231 17.3172 5.95278 17.5029 5.95278C17.6886 5.95278 17.8667 6.04231 17.998 6.20168C18.1292 6.36104 18.203 6.57719 18.203 6.80257V11.9013C18.203 12.1267 18.1292 12.3428 17.998 12.5022C17.8667 12.6615 17.6886 12.7511 17.5029 12.7511C17.3172 12.7511 17.1391 12.6615 17.0078 12.5022C16.8765 12.3428 16.8028 12.1267 16.8028 11.9013Z" fill="black"/>
</svg>
