<svg width="21" height="20" viewBox="0 0 21 20" fill="none" xmlns="http://www.w3.org/2000/svg">
<path d="M19.3846 3.33334H15.3462V2.5C15.3462 1.11929 14.2613 0 12.9231 0H8.07692C6.73869 0 5.65384 1.11929 5.65384 2.5V3.33334H1.61539C0.723231 3.33334 0 4.07953 0 5V18.3333C0 19.2538 0.723206 20 1.61539 20H19.3846C20.2767 20 21 19.2538 21 18.3333V5C21 4.07956 20.2767 3.33337 19.3846 3.33334ZM7.26923 2.5C7.26923 2.03975 7.63083 1.66665 8.07692 1.66667H12.9231C13.3692 1.66667 13.7308 2.03976 13.7308 2.5V3.33333H7.26923V2.5ZM13.7308 5V18.3333H7.26923V5H13.7308ZM1.61539 5H5.65384V18.3333H1.61539V5ZM19.3846 18.3333H15.3462V5H19.3846V18.3333Z" fill="black"/>
</svg>
